HIERARCHY
ROOT hip
{
  OFFSET 0 0 0
  CHANNELS 6 Xposition Yposition Zposition Zrotation Yrotation Xrotation
  JOINT abdomen
  {
    OFFSET 0 20.6881 -0.73152
    CHANNELS 3 Zrotation Xrotation Yrotation
    JOINT chest
    {
      OFFSET 0 11.7043 -0.48768
      CHANNELS 3 Zrotation Xrotation Yrotation
      JOINT neck
      {
        OFFSET 0 22.1894 -2.19456
        CHANNELS 3 Zrotation Xrotation Yrotation
        JOINT head
        {
          OFFSET -0.24384 7.07133 1.2192
          CHANNELS 3 Zrotation Xrotation Yrotation
          JOINT leftEye
          {
            OFFSET 4.14528 8.04674 8.04672
            CHANNELS 3 Zrotation Xrotation Yrotation
            End Site
            {
              OFFSET 1 0 0
            }
          }
          JOINT rightEye
          {
            OFFSET -3.6576 8.04674 8.04672
            CHANNELS 3 Zrotation Xrotation Yrotation
            End Site
            {
              OFFSET 1 0 0
            }
          }
        }
      }
      JOINT rCollar
      {
        OFFSET -2.68224 19.2634 -4.8768
        CHANNELS 3 Zrotation Xrotation Yrotation
        JOINT rShldr
        {
          OFFSET -8.77824 -1.95073 1.46304
          CHANNELS 3 Zrotation Xrotation Yrotation
          JOINT rForeArm
          {
            OFFSET -28.1742 -1.7115 0.48768
            CHANNELS 3 Zrotation Xrotation Yrotation
            JOINT rHand
            {
              OFFSET -22.5879 0.773209 7.07136
              CHANNELS 3 Zrotation Xrotation Yrotation
              JOINT rThumb1
              {
                OFFSET -1.2192 -0.487915 3.41376
                CHANNELS 3 Zrotation Xrotation Yrotation
                JOINT rThumb2
                {
                  OFFSET -3.37035 -0.52449 3.41376
                  CHANNELS 3 Zrotation Xrotation Yrotation
                  End Site
                  {
                    OFFSET -1.78271 -1.18214 1.43049
                  }
                }
              }
              JOINT rIndex1
              {
                OFFSET -7.75947 0.938293 5.60832
                CHANNELS 3 Zrotation Xrotation Yrotation
                JOINT rIndex2
                {
                  OFFSET -2.54057 -0.884171 1.56538
                  CHANNELS 3 Zrotation Xrotation Yrotation
                  End Site
                  {
                    OFFSET -1.62519 -0.234802 1.16502
                  }
                }
              }
              JOINT rMid1
              {
                OFFSET -8.24714 1.18213 3.41376
                CHANNELS 3 Zrotation Xrotation Yrotation
                JOINT rMid2
                {
                  OFFSET -3.10165 -0.590103 1.0647
                  CHANNELS 3 Zrotation Xrotation Yrotation
                  End Site
                  {
                    OFFSET -2.48547 -0.328903 0.83742
                  }
                }
              }
              JOINT rRing1
              {
                OFFSET -8.82822 0.546677 1.51678
                CHANNELS 3 Zrotation Xrotation Yrotation
                JOINT rRing2
                {
                  OFFSET -2.60934 -0.819778 -0.0198488
                  CHANNELS 3 Zrotation Xrotation Yrotation
                  End Site
                  {
                    OFFSET -2.33842 -0.294052 0.168128
                  }
                }
              }
              JOINT rPinky1
              {
                OFFSET -8.27202 -0.0477905 -0.4584
                CHANNELS 3 Zrotation Xrotation Yrotation
                JOINT rPinky2
                {
                  OFFSET -1.82734 -0.647385 -0.700984
                  CHANNELS 3 Zrotation Xrotation Yrotation
                  End Site
                  {
                    OFFSET -1.69225 -0.51767 -0.607171
                  }
                }
              }
            }
          }
        }
      }
      JOINT lCollar
      {
        OFFSET 2.68224 19.2634 -4.8768
        CHANNELS 3 Zrotation Xrotation Yrotation
        JOINT lShldr
        {
          OFFSET 8.77824 -1.95073 1.46304
          CHANNELS 3 Zrotation Xrotation Yrotation
          JOINT lForeArm
          {
            OFFSET 28.1742 -1.7115 0.48768
            CHANNELS 3 Zrotation Xrotation Yrotation
            JOINT lHand
            {
              OFFSET 22.5879 0.773209 7.07136
              CHANNELS 3 Zrotation Xrotation Yrotation
              JOINT lThumb1
              {
                OFFSET 1.2192 -0.487915 3.41376
                CHANNELS 3 Zrotation Xrotation Yrotation
                JOINT lThumb2
                {
                  OFFSET 3.37035 -0.52449 3.41376
                  CHANNELS 3 Zrotation Xrotation Yrotation
                  End Site
                  {
                    OFFSET 1.78271 -1.18214 1.43049
                  }
                }
              }
              JOINT lIndex1
              {
                OFFSET 7.75947 0.938293 5.60832
                CHANNELS 3 Zrotation Xrotation Yrotation
                JOINT lIndex2
                {
                  OFFSET 2.54057 -0.884171 1.56538
                  CHANNELS 3 Zrotation Xrotation Yrotation
                  End Site
                  {
                    OFFSET 1.62519 -0.234802 1.16502
                  }
                }
              }
              JOINT lMid1
              {
                OFFSET 8.24714 1.18213 3.41376
                CHANNELS 3 Zrotation Xrotation Yrotation
                JOINT lMid2
                {
                  OFFSET 3.10165 -0.590103 1.0647
                  CHANNELS 3 Zrotation Xrotation Yrotation
                  End Site
                  {
                    OFFSET 2.48547 -0.328903 0.83742
                  }
                }
              }
              JOINT lRing1
              {
                OFFSET 8.82822 0.546677 1.51678
                CHANNELS 3 Zrotation Xrotation Yrotation
                JOINT lRing2
                {
                  OFFSET 2.60934 -0.819778 -0.0198488
                  CHANNELS 3 Zrotation Xrotation Yrotation
                  End Site
                  {
                    OFFSET 2.33842 -0.294052 0.168128
                  }
                }
              }
              JOINT lPinky1
              {
                OFFSET 8.27202 -0.0477905 -0.4584
                CHANNELS 3 Zrotation Xrotation Yrotation
                JOINT lPinky2
                {
                  OFFSET 1.82734 -0.647385 -0.700984
                  CHANNELS 3 Zrotation Xrotation Yrotation
                  End Site
                  {
                    OFFSET 1.69225 -0.51767 -0.607171
                  }
                }
              }
            }
          }
        }
      }
    }
  }
  JOINT rButtock
  {
    OFFSET -8.77824 4.35084 1.2192
    CHANNELS 3 Zrotation Xrotation Yrotation
    JOINT rThigh
    {
      OFFSET 0 -1.70687 -2.19456
      CHANNELS 3 Zrotation Xrotation Yrotation
      JOINT rShin
      {
        OFFSET 0 -36.8199 0.73152
        CHANNELS 3 Zrotation Xrotation Yrotation
        JOINT rFoot
        {
          OFFSET 0.73152 -45.1104 -5.12064
          CHANNELS 3 Zrotation Xrotation Yrotation
          End Site
          {
            OFFSET -1.1221 -3.69964 12.103
          }
        }
      }
    }
  }
  JOINT lButtock
  {
    OFFSET 8.77824 4.35084 1.2192
    CHANNELS 3 Zrotation Xrotation Yrotation
    JOINT lThigh
    {
      OFFSET 0 -1.70687 -2.19456
      CHANNELS 3 Zrotation Xrotation Yrotation
      JOINT lShin
      {
        OFFSET 0 -36.8199 0.73152
        CHANNELS 3 Zrotation Xrotation Yrotation
        JOINT lFoot
        {
          OFFSET -0.73152 -45.1104 -5.12064
          CHANNELS 3 Zrotation Xrotation Yrotation
          End Site
          {
            OFFSET 1.1221 -3.69964 12.103
          }
        }
      }
    }
  }
}
MOTION
Frames:	4
Frame Time:	0.03333
1.992240889610132 69.68376874281532 -14.051779982535555 -10.088913917541504 8.048343658447266 -2.399155855178833 6.780488967895508 24.72792625427246 5.222840785980225 3.0403826236724854 -12.799539566040039 2.099466562271118 -3.7786929607391357 15.99215316772461 -7.486297130584717 5.390285015106201 -37.1671142578125 -11.96147346496582 0.2750963866710663 0.056763239204883575 -0.4137061834335327 -0.335603266954422 0.2629254162311554 0.762440025806427 -0.8228105306625366 0.3488270342350006 0.04479827359318733 47.59123611450195 -18.15692710876465 64.75830078125 -9.122607231140137 -6.4044108390808105 15.192418098449707 -0.32671818137168884 -25.685449600219727 -2.1528146266937256 -0.22980453073978424 -0.6427032351493835 -0.0065925088711082935 0.3469655513763428 0.28661033511161804 -0.5353787541389465 0.2299245446920395 -0.8457849025726318 -0.7740955948829651 8.02038288116455 4.1576924324035645 -1.5049011707305908 -0.3848400413990021 -0.3856113851070404 -0.6088119149208069 3.6756086349487305 0.5841881632804871 -0.00694586057215929 0.9095459580421448 -0.22066107392311096 -0.6773149371147156 9.823047637939453 0.5525751113891602 0.5112923979759216 -0.5741546154022217 0.04262716323137283 0.5837476253509521 1.6141258478164673 0.08695901930332184 1.1196174621582031 -0.6675378084182739 0.35125264525413513 0.3654305934906006 39.5565299987793 17.46025276184082 -131.829345703125 27.648147583007812 -34.091758728027344 -76.39398193359375 0.21681538224220276 -2.9697012901306152 -1.0266362428665161 0.44890761375427246 -0.36237868666648865 0.8954196572303772 -0.013406926766037941 -0.015745310112833977 -0.3251575827598572 -0.6174689531326294 0.18664401769638062 0.1407133936882019 -7.439925670623779 5.697819709777832 0.08082954585552216 -0.22807180881500244 -0.2915862798690796 -0.29567909240722656 -1.409241795539856 1.5020122528076172 0.17621636390686035 -0.31716862320899963 0.44013097882270813 0.19331984221935272 -8.675185203552246 0.6344175338745117 -0.5748000741004944 -0.19742794334888458 0.911889374256134 0.109603151679039 -3.5031158924102783 -0.9713985919952393 1.1577807664871216 0.5970296859741211 -0.5917174816131592 -0.053021304309368134 -36.46596908569336 -52.846160888671875 -18.96209144592285 -14.659090042114258 85.0516586303711 15.665788650512695 -1.1233923435211182 17.82274055480957 8.680214881896973 -0.7308309078216553 0.1291493922472 -0.3213080167770386 12.577240943908691 -49.271541595458984 14.836912155151367 -0.09009911864995956 78.46981811523438 -0.22474636137485504 11.341421127319336 -18.346105575561523 19.093765258789062
1.4757070865759774 69.32154332056203 -14.306785308641393 -10.496805191040039 7.728909015655518 -2.2035491466522217 7.540789604187012 24.578136444091797 5.374650001525879 2.8905532360076904 -12.57603645324707 1.9628039598464966 -3.617244005203247 16.09720802307129 -7.408123970031738 5.365546703338623 -37.19729232788086 -12.093714714050293 0.39239367842674255 -0.014217227697372437 -0.4351821839809418 -0.3329387903213501 0.21057496964931488 0.711357831954956 -0.7697969675064087 0.3657721281051636 0.04574566334486008 47.325286865234375 -15.474146842956543 67.14817810058594 -9.525064468383789 -6.610593318939209 16.034366607666016 -0.370556116104126 -28.49066734313965 -2.7206714153289795 -0.031396493315696716 -0.8175184726715088 -0.10648934543132782 0.5049947500228882 0.4525879919528961 -0.4493798017501831 0.1510663777589798 -0.8343703746795654 -0.882591724395752 7.984389305114746 4.184031963348389 -1.5585885047912598 -0.46713635325431824 -0.35896036028862 -0.6066409349441528 3.62150239944458 0.6354687809944153 0.13394512236118317 1.1205755472183228 -0.1550348997116089 -0.6133508086204529 9.761075973510742 0.6252126097679138 0.32007816433906555 -0.5778061151504517 0.006570262834429741 0.6919994354248047 1.7212275266647339 -0.09876924753189087 1.1081103086471558 -0.6554775834083557 0.4344572126865387 0.2899664640426636 38.302364349365234 16.75609588623047 -131.2989501953125 27.47136688232422 -33.04114532470703 -74.66468048095703 0.11604964733123779 1.7272008657455444 -1.5906680822372437 0.4905261993408203 -0.3782896101474762 0.7905958294868469 -0.05487952008843422 -0.05918486416339874 -0.4700164198875427 -0.5799580812454224 -0.020179150626063347 0.09610685706138611 -7.451873302459717 5.760638236999512 0.10995866358280182 -0.26182353496551514 -0.23359060287475586 -0.21159933507442474 -1.5747473239898682 1.4206018447875977 0.3711203634738922 -0.4760211110115051 0.4925585091114044 0.07391645014286041 -8.517538070678711 0.6753554940223694 -0.49973851442337036 -0.019186854362487793 0.9033673405647278 0.2795357406139374 -3.4469056129455566 -0.9663375616073608 1.095343828201294 0.47154760360717773 -0.4521675705909729 0.008787501603364944 -34.17637252807617 -50.63676071166992 -16.103147506713867 -8.477300643920898 81.7519302368164 9.254010200500488 -0.6910793781280518 15.093867301940918 8.936678886413574 -0.624194324016571 0.061460934579372406 -0.2356737107038498 14.874794006347656 -50.49797439575195 16.934778213500977 -0.7477008104324341 80.44287872314453 0.6699801683425903 11.44062328338623 -18.539276123046875 18.767284393310547
0.9182301414490042 68.51931711197652 -14.55171994770287 -10.141816139221191 8.738119125366211 -1.784562587738037 7.4257588386535645 24.503429412841797 5.398225784301758 2.8835949897766113 -12.43316650390625 1.772761583328247 -3.7593636512756348 16.35504913330078 -7.837238788604736 5.539857387542725 -37.344520568847656 -13.14932918548584 0.43940237164497375 -0.15128280222415924 -0.38523122668266296 -0.3397226631641388 0.16590629518032074 0.7280915379524231 -0.7432688474655151 0.3039751946926117 0.05481521785259247 47.429718017578125 -14.012346267700195 69.65339660644531 -9.736227035522461 -6.878314971923828 16.387481689453125 -0.3636513650417328 -29.478029251098633 -2.964346408843994 0.13219387829303741 -0.9733264446258545 -0.23167647421360016 0.6174547672271729 0.5835939049720764 -0.38659965991973877 0.05324503779411316 -0.7752002477645874 -1.0099643468856812 7.93360710144043 4.23776388168335 -1.5467857122421265 -0.5621348023414612 -0.35968998074531555 -0.5509215593338013 3.5356287956237793 0.7162501215934753 0.24761193990707397 1.235756754875183 -0.11119755357503891 -0.5630534291267395 9.680811882019043 0.6532458662986755 0.12113343924283981 -0.6061051487922668 -0.036679092794656754 0.7310420274734497 1.8604406118392944 -0.24644778668880463 1.0668851137161255 -0.6408303380012512 0.48883578181266785 0.21515513956546783 37.113548278808594 16.578693389892578 -130.83047485351562 27.550745010375977 -32.890506744384766 -74.02339172363281 0.17623725533485413 3.8321151733398438 -1.785202145576477 0.4833597242832184 -0.44498926401138306 0.7045633792877197 -0.10894346237182617 -0.04055994004011154 -0.5801857709884644 -0.556715190410614 -0.2853313088417053 0.06674683839082718 -7.444455623626709 5.816803932189941 0.12671984732151031 -0.23880614340305328 -0.18260934948921204 -0.13783949613571167 -1.7030137777328491 1.280604600906372 0.5054784417152405 -0.577339231967926 0.4926728308200836 0.06630240380764008 -8.418465614318848 0.7540926933288574 -0.46205559372901917 0.1263367086648941 0.93049556016922 0.4405115842819214 -3.3691790103912354 -0.9254164695739746 1.0253520011901855 0.23671266436576843 -0.33001571893692017 0.13618558645248413 -34.561588287353516 -50.13789367675781 -15.747380256652832 -7.093939304351807 79.9570083618164 7.585813522338867 0.09234368801116943 13.480281829833984 10.010025024414062 -0.49392086267471313 0.08739206194877625 -0.08989325910806656 15.494877815246582 -49.864402770996094 17.84292984008789 -1.8765701055526733 81.23916625976562 1.8989800214767456 11.891427040100098 -19.277713775634766 19.57158851623535
0.3165943157906062 68.16131957681948 -14.818662096600363 -9.581697463989258 9.66299057006836 -1.5409705638885498 6.993609428405762 24.309616088867188 5.563105583190918 2.875277042388916 -12.216615676879883 1.6242871284484863 -3.9483680725097656 16.60845184326172 -8.136482238769531 5.7674241065979 -37.41717529296875 -13.999993324279785 0.40894582867622375 -0.28343743085861206 -0.32190704345703125 -0.35101422667503357 0.11962926387786865 0.7275750041007996 -0.6414964199066162 0.18801169097423553 0.07083240896463394 47.49752426147461 -12.858296394348145 71.65837097167969 -9.919573783874512 -7.101993083953857 16.70550537109375 -0.376318097114563 -29.97884750366211 -3.119739532470703 0.25082823634147644 -1.0906212329864502 -0.3420393466949463 0.6956619024276733 0.6733416318893433 -0.3262735605239868 -0.049678411334753036 -0.7167705297470093 -1.1352601051330566 7.9013285636901855 4.269284248352051 -1.443090558052063 -0.6750746965408325 -0.3043842315673828 -0.5109437704086304 3.40710711479187 0.7728446125984192 0.29045602679252625 1.3036097288131714 -0.06113121286034584 -0.5245561599731445 9.654479026794434 0.6948488354682922 -0.06263259798288345 -0.6408360600471497 -0.08429750800132751 0.7267561554908752 1.9636996984481812 -0.36236807703971863 0.9935351014137268 -0.5809007883071899 0.5206438899040222 0.1750284731388092 35.76738739013672 17.16779136657715 -130.37461853027344 27.70086097717285 -32.811344146728516 -73.41737365722656 0.2625519335269928 4.9747419357299805 -1.8474534749984741 0.4681062400341034 -0.48737022280693054 0.6762808561325073 -0.17407135665416718 -0.04961627721786499 -0.6327438354492188 -0.5293988585472107 -0.5299056172370911 0.02443145401775837 -7.429785251617432 5.848116397857666 0.12061236053705215 -0.20341123640537262 -0.16645607352256775 -0.1008743941783905 -1.8103253841400146 1.120993733406067 0.5776574611663818 -0.6139243841171265 0.47969019412994385 0.05971445515751839 -8.440634727478027 0.9146280288696289 -0.46466830372810364 0.2672455906867981 0.9743244051933289 0.5394554734230042 -3.2840301990509033 -0.8947662711143494 0.9492465853691101 0.025819504633545876 -0.2575516402721405 0.22060489654541016 -35.23553466796875 -49.88615036010742 -15.822961807250977 -6.197979927062988 78.42930603027344 6.468859672546387 0.6894382834434509 12.171964645385742 11.009184837341309 -0.34501633048057556 0.15359267592430115 0.09097881615161896 15.625245094299316 -48.802024841308594 18.104198455810547 -2.712930202484131 81.11599731445312 2.799121141433716 12.23157024383545 -19.727495193481445 20.345060348510742
